<?xml version="1.0"?>
<svg xmlns="http://www.w3.org/2000/svg" id="Capa_1" enable-background="new 0 0 512 512" height="512px" viewBox="0 0 512 512" width="512px"><g><path d="m512 106.862v-37.05c0-6.085-4.933-11.017-11.017-11.017h-489.966c-6.084 0-11.017 4.932-11.017 11.017v19.347c0 6.287 2.937 12.108 7.696 16.218 5.52 4.767 9.092 12.366 9.092 20.928s-3.572 16.161-9.092 20.928c-4.758 4.11-7.696 9.931-7.696 16.218v1.225c0 3.687.908 7.327 2.718 10.539 1.724 3.06 2.729 6.705 2.729 10.627s-1.005 7.567-2.729 10.627c-1.81 3.212-2.718 6.852-2.718 10.539v182.262c0 6.085 4.933 11.017 11.017 11.017h300.966c4.039 0 7.916-1.928 10.101-5.326 3.095-4.815 8.055-7.938 13.654-7.938 5.6 0 10.559 3.123 13.654 7.938 2.184 3.398 6.061 5.326 10.101 5.326h141.491c6.085 0 11.017-4.933 11.017-11.017v-108.8c0-3.925-1.551-7.73-4.424-10.405-6.676-6.215-10.947-15.727-10.947-26.39 0-10.662 4.27-20.174 10.947-26.389 2.873-2.675 4.424-6.479 4.424-10.405v-48.062c0-3.984-1.579-7.862-4.546-10.521-3.997-3.582-6.572-9.168-6.572-15.458s2.574-11.876 6.572-15.458c2.966-2.658 4.545-6.536 4.545-10.52z" fill="#845151" data-original="#845151"/><path d="m507.454 117.383c2.967-2.659 4.546-6.537 4.546-10.521v-37.05c0-6.085-4.932-11.017-11.017-11.017h-26.404v10.646c0 3.984-1.579 7.862-4.546 10.521-3.997 3.582-6.572 9.168-6.572 15.458s2.574 11.876 6.572 15.458c2.967 2.659 4.546 6.537 4.546 10.521v48.062c0 3.925-1.551 7.73-4.424 10.405-6.676 6.215-10.947 15.727-10.947 26.389s4.27 20.174 10.947 26.389c2.873 2.675 4.424 6.479 4.424 10.405v108.8c0 6.085-4.932 11.017-11.017 11.017h-141.491c-4.039 0-7.916-1.928-10.101-5.326-3.095-4.815-8.055-7.938-13.654-7.938s-10.559 3.123-13.654 7.938c-2.184 3.398-6.061 5.326-10.101 5.326h-274.561v26.404c0 6.085 4.932 11.017 11.017 11.017h300.966c4.039 0 7.916-1.928 10.101-5.326 3.096-4.815 8.055-7.938 13.654-7.938s10.559 3.123 13.654 7.938c2.184 3.398 6.061 5.326 10.101 5.326h141.491c6.085 0 11.017-4.932 11.017-11.017v-108.8c0-3.925-1.55-7.73-4.424-10.405-6.676-6.215-10.947-15.727-10.947-26.389s4.27-20.174 10.946-26.389c2.873-2.675 4.424-6.479 4.424-10.405v-48.062c0-3.984-1.579-7.862-4.546-10.521-3.997-3.582-6.572-9.168-6.572-15.458s2.575-11.876 6.572-15.458z" fill="#5a3535" data-original="#5A3535" class=""/><path d="m391.291 387.772-.163.098c-10.905 6.563-17.573 18.36-17.573 31.087v31.165c0 1.709 1.39 3.092 3.1 3.083l17.472-.092c1.697-.009 3.067-1.387 3.067-3.083v-31.185c0-4.355 2.323-8.449 6.079-10.694l.163-.098c11.031-6.593 17.601-18.201 17.573-31.052-.027-12.915-6.713-24.546-17.873-31.073-3.74-2.188-5.942-6.29-5.942-10.623v-7.579h-23.638v7.588c0 12.838 6.973 24.456 17.911 31.177 5.311 3.263 5.9 8.459 5.904 10.562.004 2.127-.577 7.431-6.08 10.719z" fill="#fa6931" data-original="#FA6931"/><path d="m403.136 345.927c-3.74-2.188-5.943-6.29-5.943-10.623v-7.579h-10.963v7.579c0 4.333 2.202 8.435 5.943 10.623 11.16 6.527 17.846 18.158 17.873 31.073.028 12.851-6.542 24.46-17.573 31.052l-.163.098c-3.757 2.245-6.079 6.338-6.079 10.694v31.333c0 1.615-1.305 2.927-2.92 2.935l-7.376.039c.185.035.375.056.571.055l17.621-.093c1.697-.009 3.067-1.387 3.067-3.083v-31.185c0-4.355 2.323-8.449 6.079-10.694l.163-.098c11.031-6.593 17.601-18.201 17.573-31.052-.027-12.916-6.713-24.547-17.873-31.074z" fill="#fc5327" data-original="#FC5327"/><path d="m442.371 119.739h-56.028c-2.234 0-4.321 1.112-5.567 2.965l-8.129 12.088c-.816 1.214-2.603 1.214-3.419 0l-8.129-12.088c-1.246-1.853-3.334-2.965-5.567-2.965h-64.568c-14.265 0-26.788 7.428-33.937 18.62-7.149-11.192-19.671-18.62-33.937-18.62h-151.406c-2.179 0-3.946 1.767-3.946 3.946v210.443c0 2.179 1.767 3.946 3.946 3.946h36.482c2.676 0 5.177-1.332 6.671-3.553l11.159-16.594c.815-1.211 2.597-1.211 3.411 0l11.159 16.594c1.493 2.221 3.994 3.553 6.671 3.553h295.135c2.179 0 3.946-1.767 3.946-3.946v-210.442c-.001-2.18-1.767-3.947-3.947-3.947z" fill="#eedfda" data-original="#EEDFDA"/><path d="m257.028 138.359c-7.149-11.192-19.671-18.62-33.937-18.62h-151.407c-2.179 0-3.946 1.767-3.946 3.946v210.443c0 2.179 1.767 3.946 3.946 3.946h36.482c2.676 0 5.177-1.332 6.671-3.553l11.159-16.594c.815-1.211 2.597-1.211 3.411 0l11.159 16.594c1.493 2.221 3.994 3.553 6.671 3.553h109.791z" fill="#eedfda" data-original="#EEDFDA"/><path d="m442.371 119.739h-13.183v187.025c0 8.514-6.902 15.416-15.416 15.416h-281.505l8.3 12.341c1.493 2.221 3.994 3.553 6.671 3.553h295.134c2.179 0 3.946-1.767 3.946-3.946v-210.442c-.001-2.18-1.767-3.947-3.947-3.947z" fill="#ded0cb" data-original="#DED0CB"/><path d="m67.738 322.181v11.948c0 2.179 1.767 3.946 3.946 3.946h36.482c2.676 0 5.177-1.332 6.671-3.553l8.3-12.342h-55.399z" fill="#ded0cb" data-original="#DED0CB"/><path d="m67.738 322.181v11.948c0 2.179 1.767 3.946 3.946 3.946h36.482c2.676 0 5.177-1.332 6.671-3.553l8.3-12.342h-55.399z" fill="#ded0cb" data-original="#DED0CB"/><path d="m239.898 123.427v183.338c0 8.514-6.902 15.416-15.416 15.416h-92.215l8.3 12.342c1.493 2.221 3.994 3.553 6.671 3.553h109.791v-199.717c-4.142-6.482-10.091-11.687-17.131-14.932z" fill="#ded0cb" data-original="#DED0CB"/><path d="m197.408 216.171c6.68-5.788 10.919-14.324 10.919-23.837 0-17.394-14.151-31.545-31.545-31.545h-28.16c-6.246 0-11.327-5.082-11.327-11.327 0-4.257-3.451-7.708-7.708-7.708s-7.708 3.451-7.708 7.708c0 14.746 11.997 26.744 26.744 26.744h28.16c8.893 0 16.129 7.235 16.129 16.129s-7.235 16.129-16.129 16.129h-11.566c-4.257 0-7.708 3.451-7.708 7.708s3.451 7.708 7.708 7.708h11.566c8.893 0 16.129 7.235 16.129 16.129s-7.235 16.129-16.129 16.129h-31.95v-56.448c0-4.257-3.451-7.708-7.708-7.708s-7.708 3.451-7.708 7.708v62.266c-4.623 4.157-7.537 10.179-7.537 16.871v5.732c0 4.257 3.451 7.708 7.708 7.708s7.708-3.451 7.708-7.708v-5.732c0-4.011 3.263-7.274 7.274-7.274h32.213c17.394 0 31.545-14.151 31.545-31.545-.002-9.512-4.24-18.048-10.92-23.837z" fill="#f1562e" data-original="#F1562E"/><g fill="#c8c1c9"><path d="m351.582 187.093h-51.388c-4.258 0-7.708-3.451-7.708-7.708s3.451-7.708 7.708-7.708h51.388c4.258 0 7.708 3.451 7.708 7.708s-3.451 7.708-7.708 7.708z" data-original="#C8C1C9" class="active-path" style="fill:#C8C1C9"/><path d="m351.582 272.949h-51.388c-4.258 0-7.708-3.451-7.708-7.708s3.451-7.708 7.708-7.708h51.388c4.258 0 7.708 3.451 7.708 7.708s-3.451 7.708-7.708 7.708z" data-original="#C8C1C9" class="active-path" style="fill:#C8C1C9"/><path d="m389.951 187.093h-12.333c-4.258 0-7.708-3.451-7.708-7.708s3.451-7.708 7.708-7.708h12.333c4.258 0 7.708 3.451 7.708 7.708s-3.45 7.708-7.708 7.708z" data-original="#C8C1C9" class="active-path" style="fill:#C8C1C9"/><path d="m369.48 216.129h-17.297c-4.258 0-7.708-3.451-7.708-7.708s3.451-7.708 7.708-7.708h17.297c4.258 0 7.708 3.451 7.708 7.708s-3.45 7.708-7.708 7.708z" data-original="#C8C1C9" class="active-path" style="fill:#C8C1C9"/><path d="m325.888 216.129h-25.351c-4.258 0-7.708-3.451-7.708-7.708s3.451-7.708 7.708-7.708h25.351c4.258 0 7.708 3.451 7.708 7.708s-3.451 7.708-7.708 7.708z" data-original="#C8C1C9" class="active-path" style="fill:#C8C1C9"/><path d="m325.888 244.539h-25.351c-4.258 0-7.708-3.451-7.708-7.708s3.451-7.708 7.708-7.708h25.351c4.258 0 7.708 3.451 7.708 7.708 0 4.256-3.451 7.708-7.708 7.708z" data-original="#C8C1C9" class="active-path" style="fill:#C8C1C9"/><path d="m413.247 244.539h-61.666c-4.258 0-7.708-3.451-7.708-7.708s3.451-7.708 7.708-7.708h61.666c4.258 0 7.708 3.451 7.708 7.708.001 4.256-3.45 7.708-7.708 7.708z" data-original="#C8C1C9" class="active-path" style="fill:#C8C1C9"/><path d="m413.247 216.129h-17.727c-4.258 0-7.708-3.451-7.708-7.708s3.451-7.708 7.708-7.708h17.727c4.258 0 7.708 3.451 7.708 7.708.001 4.257-3.45 7.708-7.708 7.708z" data-original="#C8C1C9" class="active-path" style="fill:#C8C1C9"/></g></g> </svg>
